<svg xmlns="http://www.w3.org/2000/svg" width="65" height="65" fill="none" viewBox="0 0 65 65"><mask id="mask0" width="65" height="65" x="0" y="0" mask-type="alpha" maskUnits="userSpaceOnUse"><rect width="64" height="64" x=".971" y=".439" fill="#F0F0F5"/></mask><g mask="url(#mask0)"><rect width="64" height="64" x=".971" y=".439" fill="#9985FF"/><ellipse cx="32.971" cy="24.981" fill="#fff" rx="8.533" ry="8.542"/><path fill="#fff" d="M45.7707 35.6265C45.7707 37.3091 45.4396 38.9752 44.7964 40.5297C44.1531 42.0841 43.2103 43.4966 42.0217 44.6863C40.8331 45.8761 39.4221 46.8199 37.8691 47.4637C36.3161 48.1076 34.6517 48.439 32.9708 48.439C31.2899 48.439 29.6254 48.1076 28.0725 47.4637C26.5195 46.8199 25.1085 45.8761 23.9199 44.6863C22.7313 43.4966 21.7885 42.0841 21.1452 40.5297C20.502 38.9752 20.1709 37.3091 20.1709 35.6265L32.9708 35.6265H45.7707Z" opacity=".64"/></g></svg>