<svg xmlns="http://www.w3.org/2000/svg" width="65" height="65" fill="none" viewBox="0 0 65 65"><rect width="64" height="64" x=".576" y=".439" fill="#9985FF"/><path fill="#fff" d="M12.8595 14.3444H43.1224V44.5018H12.8595V14.3444Z" opacity=".64"/><path fill="#fff" d="M39.0873 26.4078L53.21 50.5338H24.9646L39.0873 26.4078Z"/><path fill="#DAD3FF" fill-opacity=".55" d="M54.2183 28.4182C54.2183 30.6389 52.4117 32.4392 50.1832 32.4392C47.9547 32.4392 46.1481 30.6389 46.1481 28.4182C46.1481 26.1974 47.9547 24.3972 50.1832 24.3972C52.4117 24.3972 54.2183 26.1974 54.2183 28.4182Z"/><path fill="#9985FF" d="M19.627 26.2244L22.7653 23.2086L19.627 20.1929L18.7303 21.0545L20.972 23.2086L18.7303 25.3627L19.627 26.2244Z"/><path fill="#9985FF" fill-rule="evenodd" d="M43.1226 33.3719V44.7762H28.2664L39.0876 26.4078L43.1226 33.3719Z" clip-rule="evenodd"/><path fill="#fff" fill-rule="evenodd" d="M43.1226 33.3719V44.7761H28.2664L39.0876 26.4078L43.1226 33.3719Z" clip-rule="evenodd"/></svg>