<svg xmlns="http://www.w3.org/2000/svg" width="257" height="145" fill="none" viewBox="0 0 257 145"><mask id="mask0" width="257" height="145" x="0" y="0" mask-type="alpha" maskUnits="userSpaceOnUse"><rect width="256" height="144" x=".698" y=".074" fill="#9985FF"/></mask><g mask="url(#mask0)"><rect width="256" height="144" x=".698" y=".074" fill="#9985FF"/><g style="mix-blend-mode:multiply"><rect width="256" height="144" x=".698" y=".074" fill="#9985FF"/></g><path fill="#fff" d="M32.6979 40.0745C32.6979 35.6562 36.2796 32.0745 40.6979 32.0745H216.698C221.116 32.0745 224.698 35.6562 224.698 40.0745V155.716H32.6979V40.0745Z"/><rect width="64" height="70" x="57.698" y="57.075" fill="#F0F0F5" stroke="#F0F0F5" stroke-width="2" rx="3"/><path fill="#A1A7B3" d="M94.7459 96.2425V93.9145H83.6579V96.2425H94.7459Z"/><rect width="64" height="70" x="135.698" y="57.075" fill="#fff" stroke="#F0F0F5" stroke-width="2" rx="3"/><path fill="#A1A7B3" d="M174.186 92.5945H169.242V87.6505H166.746V92.5945H161.802V95.1145H166.746V100.058H169.242V95.1145H174.186V92.5945Z"/></g></svg>