<svg xmlns="http://www.w3.org/2000/svg" width="65" height="65" fill="none" viewBox="0 0 65 65"><mask id="mask0" width="65" height="65" x="0" y="0" mask-type="alpha" maskUnits="userSpaceOnUse"><rect width="64" height="64" x=".274" y=".074" fill="#F0F0F5"/></mask><g mask="url(#mask0)"><rect width="64" height="64" x=".274" y=".074" fill="#9985FF"/><g style="mix-blend-mode:multiply"><rect width="64" height="64" x=".274" y=".074" fill="#9985FF"/></g><rect width="40" height="40" x="12.274" y="-9.926" fill="#fff" opacity=".64" rx="4"/><path fill="#fff" d="M35.3335 12.6003V11.1894H28.6135V12.6003H35.3335Z"/><path fill="#fff" fill-rule="evenodd" d="M16.2742 34.9231C14.065 34.9231 12.2742 36.714 12.2742 38.9231V70.9231C12.2742 73.1323 14.065 74.9231 16.2742 74.9231H48.2742C50.4833 74.9231 52.2742 73.1323 52.2742 70.9231V38.9231C52.2742 36.714 50.4833 34.9231 48.2742 34.9231H16.2742ZM33.2098 55.2378H36.2061V56.7651H33.2098V59.7615H31.697V56.7651H28.7007V55.2378H31.697V52.2415H33.2098V55.2378Z" clip-rule="evenodd"/></g></svg>