<svg xmlns="http://www.w3.org/2000/svg" width="65" height="65" fill="none" viewBox="0 0 65 65"><mask id="mask0" width="65" height="65" x="0" y="0" mask-type="alpha" maskUnits="userSpaceOnUse"><rect width="64" height="64" x=".972" y=".074" fill="#F0F0F5"/></mask><g mask="url(#mask0)"><rect width="64" height="64" x=".972" y=".074" fill="#9985FF"/><g style="mix-blend-mode:multiply"><rect width="64" height="64" x=".972" y=".074" fill="#9985FF"/></g><path fill="#fff" fill-rule="evenodd" d="M48.9719 16.0745H16.9719V38.0745H20.4819C20.8489 37.6162 21.2415 37.1775 21.6582 36.7608C23.144 35.275 24.9078 34.0965 26.849 33.2924C28.7902 32.4883 30.8708 32.0745 32.9719 32.0745C35.0731 32.0745 37.1536 32.4883 39.0949 33.2924C41.0361 34.0965 42.7999 35.275 44.2856 36.7608C44.7024 37.1775 45.095 37.6162 45.4619 38.0745H48.9719V16.0745Z" clip-rule="evenodd"/><path fill="#fff" d="M48.9719 48.0745C48.9719 45.9733 48.5581 43.8928 47.754 41.9516C46.9499 40.0103 45.7714 38.2465 44.2856 36.7608C42.7999 35.275 41.0361 34.0965 39.0949 33.2924C37.1536 32.4883 35.0731 32.0745 32.9719 32.0745C30.8708 32.0745 28.7902 32.4883 26.849 33.2924C24.9078 34.0965 23.144 35.275 21.6582 36.7608C20.1725 38.2465 18.9939 40.0103 18.1899 41.9516C17.3858 43.8928 16.9719 45.9733 16.9719 48.0745L32.9719 48.0745H48.9719Z" opacity=".64"/></g></svg>