<svg xmlns="http://www.w3.org/2000/svg" width="65" height="65" fill="none" viewBox="0 0 65 65"><mask id="mask0" width="65" height="65" x="0" y="0" mask-type="alpha" maskUnits="userSpaceOnUse"><rect width="64" height="64" x=".971" y=".368" fill="#F0F0F5"/></mask><g mask="url(#mask0)"><rect width="64" height="64" x=".971" y=".368" fill="#9985FF"/><path fill="#fff" d="M48.9709 32.3681C48.9709 34.4833 48.5571 36.5778 47.753 38.5321C46.9489 40.4863 45.7704 42.2619 44.2847 43.7576C42.7989 45.2533 41.0351 46.4397 39.0939 47.2492C37.1527 48.0586 35.0721 48.4753 32.9709 48.4753C30.8698 48.4753 28.7892 48.0586 26.848 47.2492C24.9068 46.4397 23.143 45.2533 21.6572 43.7576C20.1715 42.2619 18.9929 40.4863 18.1889 38.5321C17.3848 36.5778 16.9709 34.4833 16.9709 32.3681L32.9709 32.3681H48.9709Z" opacity=".64"/><ellipse fill="#fff" rx="10.667" ry="10.738" transform="matrix(1 0 0 -1 32.7286 32.0683)"/></g></svg>